<svg width="300" height="150" viewBox="0 0 300 150" fill="none" xmlns="http://www.w3.org/2000/svg">
<path d="M38 99C94.8098 99 215.628 99 244.421 99C273.214 99 281.471 113 282 120" stroke="black"/>
<path d="M81.38 69.18C81.22 69.1 80.82 68.99 80.18 68.85C79.56 68.71 78.94 68.64 78.32 68.64C76.58 68.64 75.24 69.2 74.3 70.32C73.36 71.44 72.89 73.04 72.89 75.12C72.89 77.22 73.36 78.84 74.3 79.98C75.26 81.12 76.6 81.69 78.32 81.69C79.16 81.69 79.86 81.58 80.42 81.36C81 81.12 81.32 80.99 81.38 80.97L82.01 78.36L84.92 79.02L84.02 83.28C84.02 83.3 83.74 83.43 83.18 83.67C82.64 83.89 81.94 84.1 81.08 84.3C80.24 84.5 79.32 84.6 78.32 84.6C75.54 84.6 73.34 83.79 71.72 82.17C70.1 80.55 69.29 78.18 69.29 75.06C69.29 73.14 69.66 71.48 70.4 70.08C71.16 68.66 72.21 67.58 73.55 66.84C74.91 66.1 76.49 65.73 78.29 65.73C79.41 65.73 80.4 65.85 81.26 66.09C82.12 66.31 82.81 66.55 83.33 66.81C83.85 67.07 84.11 67.22 84.11 67.26L84.95 71.49L82.01 72.15L81.38 69.18ZM86.8827 81.27H89.3727V67.56L86.5227 66.6L87.4227 63.87L92.7927 65.7V71.16C93.3927 70.8 94.0727 70.52 94.8327 70.32C95.5927 70.12 96.3527 70.02 97.1127 70.02C98.7327 70.02 99.9727 70.49 100.833 71.43C101.693 72.37 102.123 73.73 102.123 75.51V81.27H104.643V84H97.4427V81.27H98.7027V75.99C98.7027 74.91 98.4927 74.13 98.0727 73.65C97.6527 73.15 96.9827 72.9 96.0627 72.9C95.6027 72.9 95.0727 72.98 94.4727 73.14C93.8727 73.28 93.3227 73.46 92.8227 73.68V81.27H94.0527V84H86.8827V81.27ZM119.075 82.35C117.335 83.83 115.445 84.57 113.405 84.57C111.905 84.57 110.585 84.27 109.445 83.67C108.325 83.05 107.455 82.2 106.835 81.12C106.215 80.02 105.905 78.76 105.905 77.34C105.905 75.9 106.195 74.63 106.775 73.53C107.355 72.41 108.175 71.55 109.235 70.95C110.295 70.33 111.505 70.02 112.865 70.02C114.225 70.02 115.415 70.3 116.435 70.86C117.475 71.42 118.275 72.21 118.835 73.23C119.395 74.25 119.675 75.43 119.675 76.77C119.675 77.29 119.625 77.85 119.525 78.45H109.205C109.285 79.57 109.715 80.42 110.495 81C111.295 81.58 112.265 81.87 113.405 81.87C115.065 81.87 116.555 81.35 117.875 80.31L119.075 82.35ZM116.285 76.11C116.265 75.11 115.955 74.31 115.355 73.71C114.755 73.09 113.955 72.78 112.955 72.78C111.975 72.78 111.135 73.09 110.435 73.71C109.735 74.33 109.345 75.13 109.265 76.11H116.285ZM126.684 71.73C128.364 70.63 129.944 70.08 131.424 70.08C132.164 70.08 132.874 70.21 133.554 70.47L134.064 74.19L131.244 74.79L130.944 73.17C129.604 73.25 128.504 73.61 127.644 74.25L127.614 81.27H130.554V84H121.704V81.27H124.224V73.95L121.344 72.99L122.244 70.26L126.684 71.73ZM140.834 71.73C142.514 70.63 144.094 70.08 145.574 70.08C146.314 70.08 147.024 70.21 147.704 70.47L148.214 74.19L145.394 74.79L145.094 73.17C143.754 73.25 142.654 73.61 141.794 74.25L141.764 81.27H144.704V84H135.854V81.27H138.374V73.95L135.494 72.99L136.394 70.26L140.834 71.73ZM166.414 70.59V73.29H164.104L158.584 86.28C157.844 88.04 157.044 89.31 156.184 90.09C155.324 90.87 154.314 91.26 153.154 91.26C152.294 91.26 151.414 91.07 150.514 90.69L151.144 88.05C151.544 88.19 151.884 88.29 152.164 88.35C152.444 88.43 152.744 88.47 153.064 88.47C153.544 88.47 153.944 88.35 154.264 88.11C154.604 87.89 154.914 87.51 155.194 86.97C155.494 86.45 155.854 85.66 156.274 84.6L150.994 73.29H148.804V70.59H156.124V73.29H154.474L157.714 80.97L160.774 73.29H159.214L159.364 70.59H166.414ZM173.635 84.42C171.135 84.42 169.195 83.39 167.815 81.33V79.71C168.355 80.91 169.135 81.85 170.155 82.53C171.195 83.21 172.435 83.55 173.875 83.55C174.875 83.55 175.795 83.33 176.635 82.89C177.495 82.45 178.175 81.83 178.675 81.03C179.175 80.23 179.425 79.31 179.425 78.27C179.425 77.33 179.265 76.52 178.945 75.84C178.625 75.16 178.095 74.51 177.355 73.89C176.615 73.25 175.545 72.5 174.145 71.64L173.185 71.04C172.305 70.5 171.595 70.02 171.055 69.6C170.515 69.18 170.045 68.69 169.645 68.13C169.125 67.35 168.865 66.45 168.865 65.43C168.865 64.07 169.305 63.01 170.185 62.25C171.065 61.49 172.185 61.11 173.545 61.11C175.385 61.11 176.845 61.79 177.925 63.15V64.68C177.465 63.84 176.835 63.18 176.035 62.7C175.235 62.22 174.355 61.98 173.395 61.98C172.395 61.98 171.555 62.29 170.875 62.91C170.195 63.53 169.855 64.36 169.855 65.4C169.855 66.42 170.165 67.3 170.785 68.04C171.425 68.76 172.495 69.55 173.995 70.41C175.835 71.49 177.265 72.47 178.285 73.35C179.005 74.01 179.525 74.74 179.845 75.54C180.185 76.34 180.355 77.23 180.355 78.21C180.355 79.45 180.065 80.54 179.485 81.48C178.905 82.42 178.105 83.15 177.085 83.67C176.065 84.17 174.915 84.42 173.635 84.42ZM188.333 84.18C186.853 84.18 185.623 83.73 184.643 82.83C183.683 81.93 183.203 80.69 183.203 79.11V65.07H184.163V70.5H188.303V71.34H184.163V79.11C184.163 80.43 184.553 81.47 185.333 82.23C186.133 82.97 187.133 83.34 188.333 83.34V84.18ZM197.277 84.48C195.917 84.48 194.687 84.15 193.587 83.49C192.487 82.81 191.627 81.92 191.007 80.82C190.387 79.7 190.077 78.49 190.077 77.19C190.077 75.91 190.387 74.72 191.007 73.62C191.647 72.52 192.507 71.65 193.587 71.01C194.687 70.35 195.907 70.02 197.247 70.02C198.567 70.02 199.767 70.35 200.847 71.01C201.947 71.65 202.807 72.52 203.427 73.62C204.047 74.72 204.357 75.91 204.357 77.19C204.357 78.53 204.057 79.76 203.457 80.88C202.857 81.98 202.017 82.86 200.937 83.52C199.877 84.16 198.657 84.48 197.277 84.48ZM197.277 83.64C198.417 83.64 199.457 83.35 200.397 82.77C201.337 82.19 202.067 81.42 202.587 80.46C203.127 79.48 203.397 78.41 203.397 77.25C203.397 76.11 203.127 75.05 202.587 74.07C202.047 73.09 201.307 72.31 200.367 71.73C199.427 71.15 198.387 70.86 197.247 70.86C196.107 70.86 195.057 71.16 194.097 71.76C193.157 72.34 192.407 73.12 191.847 74.1C191.307 75.08 191.037 76.14 191.037 77.28C191.037 78.42 191.307 79.48 191.847 80.46C192.407 81.42 193.157 82.19 194.097 82.77C195.057 83.35 196.117 83.64 197.277 83.64ZM207.058 70.5H208.018V73.62C208.418 72.64 208.998 71.87 209.758 71.31C210.538 70.75 211.418 70.47 212.398 70.47C213.018 70.47 213.648 70.6 214.288 70.86V71.97C213.708 71.53 213.058 71.31 212.338 71.31C211.618 71.31 210.918 71.53 210.238 71.97C209.578 72.41 209.038 73 208.618 73.74C208.218 74.48 208.018 75.27 208.018 76.11V84H207.058V70.5ZM223.027 84.33C221.747 84.33 220.557 84.01 219.457 83.37C218.357 82.73 217.487 81.87 216.847 80.79C216.207 79.69 215.887 78.51 215.887 77.25C215.887 75.99 216.207 74.82 216.847 73.74C217.487 72.64 218.357 71.77 219.457 71.13C220.557 70.49 221.747 70.17 223.027 70.17C224.327 70.17 225.557 70.52 226.717 71.22C227.877 71.9 228.687 72.79 229.147 73.89V70.5H230.107V84H229.147V80.64C228.607 81.76 227.767 82.66 226.627 83.34C225.507 84 224.307 84.33 223.027 84.33ZM223.087 83.49C224.187 83.49 225.207 83.21 226.147 82.65C227.087 82.07 227.827 81.31 228.367 80.37C228.927 79.41 229.207 78.37 229.207 77.25C229.207 76.15 228.927 75.12 228.367 74.16C227.807 73.2 227.057 72.44 226.117 71.88C225.177 71.3 224.157 71.01 223.057 71.01C221.957 71.01 220.927 71.3 219.967 71.88C219.027 72.46 218.267 73.23 217.687 74.19C217.127 75.15 216.847 76.18 216.847 77.28C216.847 78.38 217.127 79.41 217.687 80.37C218.267 81.31 219.037 82.07 219.997 82.65C220.957 83.21 221.987 83.49 223.087 83.49ZM240.404 90.24C239.264 90.24 238.154 89.98 237.074 89.46C235.994 88.94 235.154 88.26 234.554 87.42V86.04C235.074 87 235.884 87.8 236.984 88.44C238.104 89.08 239.244 89.4 240.404 89.4C242.324 89.4 243.804 88.83 244.844 87.69C245.884 86.57 246.404 84.92 246.404 82.74V80.73C245.864 81.81 245.014 82.69 243.854 83.37C242.714 84.03 241.514 84.36 240.254 84.36C238.974 84.36 237.784 84.04 236.684 83.4C235.584 82.76 234.714 81.9 234.074 80.82C233.434 79.72 233.114 78.54 233.114 77.28C233.114 76.02 233.434 74.85 234.074 73.77C234.714 72.67 235.584 71.8 236.684 71.16C237.784 70.52 238.974 70.2 240.254 70.2C241.574 70.2 242.794 70.53 243.914 71.19C245.034 71.85 245.864 72.74 246.404 73.86V70.5H247.364V82.74C247.364 85.2 246.764 87.06 245.564 88.32C244.384 89.6 242.664 90.24 240.404 90.24ZM240.314 83.52C241.414 83.52 242.434 83.24 243.374 82.68C244.314 82.1 245.054 81.34 245.594 80.4C246.154 79.44 246.434 78.4 246.434 77.28C246.434 76.16 246.154 75.13 245.594 74.19C245.054 73.23 244.314 72.47 243.374 71.91C242.434 71.33 241.414 71.04 240.314 71.04C239.194 71.04 238.154 71.33 237.194 71.91C236.254 72.47 235.494 73.23 234.914 74.19C234.354 75.13 234.074 76.16 234.074 77.28C234.074 78.4 234.354 79.44 234.914 80.4C235.494 81.34 236.254 82.1 237.194 82.68C238.154 83.24 239.194 83.52 240.314 83.52ZM257.72 83.52C258.76 83.52 259.75 83.25 260.69 82.71C261.63 82.17 262.41 81.43 263.03 80.49V82.02C262.29 82.84 261.48 83.44 260.6 83.82C259.72 84.18 258.72 84.36 257.6 84.36C256.36 84.36 255.19 84.03 254.09 83.37C253.01 82.71 252.14 81.83 251.48 80.73C250.84 79.63 250.52 78.46 250.52 77.22C250.52 75.88 250.84 74.68 251.48 73.62C252.12 72.54 252.99 71.7 254.09 71.1C255.21 70.5 256.45 70.2 257.81 70.2C259.89 70.2 261.66 71.02 263.12 72.66L253.7 81.96C254.36 82.5 255 82.9 255.62 83.16C256.24 83.4 256.94 83.52 257.72 83.52ZM251.48 77.13C251.48 78.79 252.03 80.21 253.13 81.39L261.92 72.66C261.26 72.08 260.62 71.67 260 71.43C259.38 71.17 258.64 71.04 257.78 71.04C256.56 71.04 255.47 71.31 254.51 71.85C253.57 72.37 252.83 73.09 252.29 74.01C251.75 74.93 251.48 75.97 251.48 77.13Z" fill="black"/>
<path d="M264 56C203.348 56 75.2442 56 48.0405 56C20.8368 56 17.6153 39.3333 19.405 31" stroke="black"/>
<path d="M56 76.1H55.5C54.8 74.8 54.3 73.1 53.8 71.4L54.7 72.3C57.4 74.4 59.8 74 59.8 74C59.8 74 60.5 70.2 57.8 68.2C55.5 66.4 53.4 66.4 52.8 66.5C52.7 65.9 52.7 65.4 52.6 65L51.2 65.1C51.2 68.3 48.5 74.2 47.6 76.1C45.6 76.3 44 78 44 80.1C44 82.3 45.8 84.1 48 84.1C49.1 84.1 50 83.7 50.7 83C50.3 82.1 50 81.1 50 80.1C50 79.1 50.3 78.1 50.7 77.2C50.3 76.8 49.7 76.5 49.2 76.3C49.9 74.8 51.1 72.1 51.9 69.5C52.3 71.8 53.1 74.5 54.1 76.6C52.9 77.3 52 78.6 52 80.1C52 82.3 53.8 84.1 56 84.1C58.2 84.1 60 82.3 60 80.1C60 77.9 58.2 76.1 56 76.1ZM48 78.6C47.2 78.6 46.5 79.3 46.5 80.1H45.5C45.5 78.7 46.6 77.6 48 77.6V78.6ZM56 78.6C55.2 78.6 54.5 79.3 54.5 80.1H53.5C53.5 78.7 54.6 77.6 56 77.6V78.6Z" fill="black"/>
</svg>
