<svg width="220" height="36" viewBox="0 0 220 36" fill="none" xmlns="http://www.w3.org/2000/svg">
<path d="M37.38 13.18C37.28 13.12 36.92 13.02 36.3 12.88C35.7 12.72 35.04 12.64 34.32 12.64C32.56 12.64 31.21 13.21 30.27 14.35C29.35 15.47 28.89 17.06 28.89 19.12C28.89 21.24 29.36 22.87 30.3 24.01C31.26 25.13 32.6 25.69 34.32 25.69C35.06 25.69 35.72 25.59 36.3 25.39C36.9 25.17 37.26 25.04 37.38 25L38.01 22.36L40.89 23.05L39.99 27.28C39.99 27.28 39.75 27.39 39.27 27.61C38.79 27.83 38.12 28.05 37.26 28.27C36.42 28.49 35.44 28.6 34.32 28.6C32.52 28.6 30.94 28.26 29.58 27.58C28.24 26.88 27.19 25.83 26.43 24.43C25.67 23.01 25.29 21.24 25.29 19.12C25.27 17.16 25.63 15.48 26.37 14.08C27.13 12.68 28.18 11.61 29.52 10.87C30.88 10.11 32.47 9.73 34.29 9.73C35.55 9.73 36.61 9.86 37.47 10.12C38.33 10.38 38.98 10.64 39.42 10.9C39.88 11.14 40.11 11.26 40.11 11.26L40.92 15.49L38.01 16.12L37.38 13.18ZM42.8534 28V25.3H45.3434V11.56L42.4934 10.6L43.3934 7.87L48.7334 9.7V15.16C49.9934 14.42 51.4334 14.05 53.0534 14.05C54.6734 14.05 55.9134 14.52 56.7734 15.46C57.6334 16.38 58.0634 17.73 58.0634 19.51V25.3H60.5834V28H53.4134V25.3H54.6734V19.99C54.6734 18.91 54.4534 18.12 54.0134 17.62C53.5934 17.12 52.9334 16.87 52.0334 16.87C51.5534 16.87 51.0034 16.95 50.3834 17.11C49.7834 17.25 49.2434 17.44 48.7634 17.68V25.3H49.9934V28H42.8534ZM74.9869 26.35C74.1069 27.11 73.1869 27.67 72.2269 28.03C71.2869 28.39 70.3269 28.57 69.3469 28.57C67.8269 28.57 66.5069 28.27 65.3869 27.67C64.2669 27.05 63.3969 26.2 62.7769 25.12C62.1569 24.04 61.8469 22.78 61.8469 21.34C61.8469 19.88 62.1369 18.61 62.7169 17.53C63.3169 16.43 64.1369 15.58 65.1769 14.98C66.2169 14.36 67.4169 14.05 68.7769 14.05C70.1569 14.05 71.3569 14.33 72.3769 14.89C73.3969 15.43 74.1769 16.21 74.7169 17.23C75.2769 18.25 75.5569 19.43 75.5569 20.77C75.5569 21.01 75.5469 21.28 75.5269 21.58C75.5069 21.88 75.4769 22.16 75.4369 22.42L65.1169 22.45C65.2169 23.63 65.6669 24.5 66.4669 25.06C67.2869 25.6 68.2369 25.87 69.3169 25.87C70.1769 25.87 70.9769 25.74 71.7169 25.48C72.4769 25.2 73.1769 24.82 73.8169 24.34L74.9869 26.35ZM72.1969 20.11C72.1969 19.13 71.8969 18.33 71.2969 17.71C70.7169 17.09 69.9069 16.78 68.8669 16.78C67.9069 16.78 67.0669 17.09 66.3469 17.71C65.6469 18.33 65.2569 19.13 65.1769 20.11H72.1969ZM82.507 15.73C84.167 14.65 85.757 14.11 87.277 14.11C88.017 14.11 88.717 14.23 89.377 14.47L89.887 18.19L87.067 18.79L86.767 17.14C86.107 17.2 85.487 17.33 84.907 17.53C84.347 17.71 83.867 17.94 83.467 18.22L83.437 25.3H86.377V28H77.557V25.3H80.077V17.95L77.197 16.99L78.097 14.26L82.507 15.73ZM96.6281 15.73C98.2881 14.65 99.8781 14.11 101.398 14.11C102.138 14.11 102.838 14.23 103.498 14.47L104.008 18.19L101.188 18.79L100.888 17.14C100.228 17.2 99.6081 17.33 99.0281 17.53C98.4681 17.71 97.9881 17.94 97.5881 18.22L97.5581 25.3H100.498V28H91.6781V25.3H94.1981V17.95L91.3181 16.99L92.2181 14.26L96.6281 15.73ZM108.949 35.26C108.109 35.26 107.229 35.07 106.309 34.69L106.939 32.05C107.299 32.19 107.619 32.29 107.899 32.35C108.199 32.43 108.519 32.47 108.859 32.47C109.339 32.47 109.739 32.35 110.059 32.11C110.399 31.89 110.719 31.5 111.019 30.94C111.339 30.38 111.699 29.6 112.099 28.6L106.789 17.29H104.599V14.59H111.889V17.29H110.239L113.509 25.03L116.539 17.29H115.009L115.129 14.59H122.179V17.29H119.869L114.379 30.28C113.619 32.02 112.809 33.28 111.949 34.06C111.109 34.86 110.109 35.26 108.949 35.26ZM129.371 28.42C126.871 28.42 124.931 27.39 123.551 25.33V23.71C124.091 24.91 124.871 25.85 125.891 26.53C126.931 27.21 128.171 27.55 129.611 27.55C130.611 27.55 131.531 27.33 132.371 26.89C133.231 26.45 133.911 25.83 134.411 25.03C134.911 24.23 135.161 23.31 135.161 22.27C135.161 21.33 135.001 20.52 134.681 19.84C134.361 19.16 133.831 18.51 133.091 17.89C132.351 17.25 131.281 16.5 129.881 15.64L128.921 15.04C128.041 14.5 127.331 14.02 126.791 13.6C126.251 13.18 125.781 12.69 125.381 12.13C124.861 11.35 124.601 10.45 124.601 9.43C124.601 8.07 125.041 7.01 125.921 6.25C126.801 5.49 127.921 5.11 129.281 5.11C131.121 5.11 132.581 5.79 133.661 7.15V8.68C133.201 7.84 132.571 7.18 131.771 6.7C130.971 6.22 130.091 5.98 129.131 5.98C128.131 5.98 127.291 6.29 126.611 6.91C125.931 7.53 125.591 8.36 125.591 9.4C125.591 10.42 125.901 11.3 126.521 12.04C127.161 12.76 128.231 13.55 129.731 14.41C131.571 15.49 133.001 16.47 134.021 17.35C134.741 18.01 135.261 18.74 135.581 19.54C135.921 20.34 136.091 21.23 136.091 22.21C136.091 23.45 135.801 24.54 135.221 25.48C134.641 26.42 133.841 27.15 132.821 27.67C131.801 28.17 130.651 28.42 129.371 28.42ZM144.07 28.18C142.59 28.18 141.36 27.73 140.38 26.83C139.42 25.93 138.94 24.69 138.94 23.11V9.07H139.9V14.5H144.04V15.34H139.9V23.11C139.9 24.43 140.29 25.47 141.07 26.23C141.87 26.97 142.87 27.34 144.07 27.34V28.18ZM153.013 28.48C151.653 28.48 150.423 28.15 149.323 27.49C148.223 26.81 147.363 25.92 146.743 24.82C146.123 23.7 145.813 22.49 145.813 21.19C145.813 19.91 146.123 18.72 146.743 17.62C147.383 16.52 148.243 15.65 149.323 15.01C150.423 14.35 151.643 14.02 152.983 14.02C154.303 14.02 155.503 14.35 156.583 15.01C157.683 15.65 158.543 16.52 159.163 17.62C159.783 18.72 160.093 19.91 160.093 21.19C160.093 22.53 159.793 23.76 159.193 24.88C158.593 25.98 157.753 26.86 156.673 27.52C155.613 28.16 154.393 28.48 153.013 28.48ZM153.013 27.64C154.153 27.64 155.193 27.35 156.133 26.77C157.073 26.19 157.803 25.42 158.323 24.46C158.863 23.48 159.133 22.41 159.133 21.25C159.133 20.11 158.863 19.05 158.323 18.07C157.783 17.09 157.043 16.31 156.103 15.73C155.163 15.15 154.123 14.86 152.983 14.86C151.843 14.86 150.793 15.16 149.833 15.76C148.893 16.34 148.143 17.12 147.583 18.1C147.043 19.08 146.773 20.14 146.773 21.28C146.773 22.42 147.043 23.48 147.583 24.46C148.143 25.42 148.893 26.19 149.833 26.77C150.793 27.35 151.853 27.64 153.013 27.64ZM162.794 14.5H163.754V17.62C164.154 16.64 164.734 15.87 165.494 15.31C166.274 14.75 167.154 14.47 168.134 14.47C168.754 14.47 169.384 14.6 170.024 14.86V15.97C169.444 15.53 168.794 15.31 168.074 15.31C167.354 15.31 166.654 15.53 165.974 15.97C165.314 16.41 164.774 17 164.354 17.74C163.954 18.48 163.754 19.27 163.754 20.11V28H162.794V14.5ZM178.764 28.33C177.484 28.33 176.294 28.01 175.194 27.37C174.094 26.73 173.224 25.87 172.584 24.79C171.944 23.69 171.624 22.51 171.624 21.25C171.624 19.99 171.944 18.82 172.584 17.74C173.224 16.64 174.094 15.77 175.194 15.13C176.294 14.49 177.484 14.17 178.764 14.17C180.064 14.17 181.294 14.52 182.454 15.22C183.614 15.9 184.424 16.79 184.884 17.89V14.5H185.844V28H184.884V24.64C184.344 25.76 183.504 26.66 182.364 27.34C181.244 28 180.044 28.33 178.764 28.33ZM178.824 27.49C179.924 27.49 180.944 27.21 181.884 26.65C182.824 26.07 183.564 25.31 184.104 24.37C184.664 23.41 184.944 22.37 184.944 21.25C184.944 20.15 184.664 19.12 184.104 18.16C183.544 17.2 182.794 16.44 181.854 15.88C180.914 15.3 179.894 15.01 178.794 15.01C177.694 15.01 176.664 15.3 175.704 15.88C174.764 16.46 174.004 17.23 173.424 18.19C172.864 19.15 172.584 20.18 172.584 21.28C172.584 22.38 172.864 23.41 173.424 24.37C174.004 25.31 174.774 26.07 175.734 26.65C176.694 27.21 177.724 27.49 178.824 27.49ZM196.14 34.24C195 34.24 193.89 33.98 192.81 33.46C191.73 32.94 190.89 32.26 190.29 31.42V30.04C190.81 31 191.62 31.8 192.72 32.44C193.84 33.08 194.98 33.4 196.14 33.4C198.06 33.4 199.54 32.83 200.58 31.69C201.62 30.57 202.14 28.92 202.14 26.74V24.73C201.6 25.81 200.75 26.69 199.59 27.37C198.45 28.03 197.25 28.36 195.99 28.36C194.71 28.36 193.52 28.04 192.42 27.4C191.32 26.76 190.45 25.9 189.81 24.82C189.17 23.72 188.85 22.54 188.85 21.28C188.85 20.02 189.17 18.85 189.81 17.77C190.45 16.67 191.32 15.8 192.42 15.16C193.52 14.52 194.71 14.2 195.99 14.2C197.31 14.2 198.53 14.53 199.65 15.19C200.77 15.85 201.6 16.74 202.14 17.86V14.5H203.1V26.74C203.1 29.2 202.5 31.06 201.3 32.32C200.12 33.6 198.4 34.24 196.14 34.24ZM196.05 27.52C197.15 27.52 198.17 27.24 199.11 26.68C200.05 26.1 200.79 25.34 201.33 24.4C201.89 23.44 202.17 22.4 202.17 21.28C202.17 20.16 201.89 19.13 201.33 18.19C200.79 17.23 200.05 16.47 199.11 15.91C198.17 15.33 197.15 15.04 196.05 15.04C194.93 15.04 193.89 15.33 192.93 15.91C191.99 16.47 191.23 17.23 190.65 18.19C190.09 19.13 189.81 20.16 189.81 21.28C189.81 22.4 190.09 23.44 190.65 24.4C191.23 25.34 191.99 26.1 192.93 26.68C193.89 27.24 194.93 27.52 196.05 27.52ZM213.456 27.52C214.496 27.52 215.486 27.25 216.426 26.71C217.366 26.17 218.146 25.43 218.766 24.49V26.02C218.026 26.84 217.216 27.44 216.336 27.82C215.456 28.18 214.456 28.36 213.336 28.36C212.096 28.36 210.926 28.03 209.826 27.37C208.746 26.71 207.876 25.83 207.216 24.73C206.576 23.63 206.256 22.46 206.256 21.22C206.256 19.88 206.576 18.68 207.216 17.62C207.856 16.54 208.726 15.7 209.826 15.1C210.946 14.5 212.186 14.2 213.546 14.2C215.626 14.2 217.396 15.02 218.856 16.66L209.436 25.96C210.096 26.5 210.736 26.9 211.356 27.16C211.976 27.4 212.676 27.52 213.456 27.52ZM207.216 21.13C207.216 22.79 207.766 24.21 208.866 25.39L217.656 16.66C216.996 16.08 216.356 15.67 215.736 15.43C215.116 15.17 214.376 15.04 213.516 15.04C212.296 15.04 211.206 15.31 210.246 15.85C209.306 16.37 208.566 17.09 208.026 18.01C207.486 18.93 207.216 19.97 207.216 21.13Z" fill="white"/>
<path d="M12 20.1H11.5C10.8 18.8 10.3 17.1 9.8 15.4L10.7 16.3C13.4 18.4 15.8 18 15.8 18C15.8 18 16.5 14.2 13.8 12.2C11.5 10.4 9.4 10.4 8.8 10.5C8.7 9.9 8.7 9.4 8.6 9L7.2 9.1C7.2 12.3 4.5 18.2 3.6 20.1C1.6 20.3 0 22 0 24.1C0 26.3 1.8 28.1 4 28.1C5.1 28.1 6 27.7 6.7 27C6.3 26.1 6 25.1 6 24.1C6 23.1 6.3 22.1 6.7 21.2C6.3 20.8 5.7 20.5 5.2 20.3C5.9 18.8 7.1 16.1 7.9 13.5C8.3 15.8 9.1 18.5 10.1 20.6C8.9 21.3 8 22.6 8 24.1C8 26.3 9.8 28.1 12 28.1C14.2 28.1 16 26.3 16 24.1C16 21.9 14.2 20.1 12 20.1ZM4 22.6C3.2 22.6 2.5 23.3 2.5 24.1H1.5C1.5 22.7 2.6 21.6 4 21.6V22.6ZM12 22.6C11.2 22.6 10.5 23.3 10.5 24.1H9.5C9.5 22.7 10.6 21.6 12 21.6V22.6Z" fill="white"/>
</svg>
